<svg id="visual" viewBox="0 0 600 100" width="600" height="100" xmlns="http://www.w3.org/2000/svg" xmlns:xlink="http://www.w3.org/1999/xlink" version="1.1"><rect x="0" y="0" width="600" height="100" fill="#FCFCFC"></rect><path d="M0 51L25 48.2C50 45.3 100 39.7 150 35.5C200 31.3 250 28.7 300 28.3C350 28 400 30 450 34C500 38 550 44 575 47L600 50L600 101L575 101C550 101 500 101 450 101C400 101 350 101 300 101C250 101 200 101 150 101C100 101 50 101 25 101L0 101Z" fill="#fed766"></path><path d="M0 34L25 37.8C50 41.7 100 49.3 150 54.3C200 59.3 250 61.7 300 58C350 54.3 400 44.7 450 43.5C500 42.3 550 49.7 575 53.3L600 57L600 101L575 101C550 101 500 101 450 101C400 101 350 101 300 101C250 101 200 101 150 101C100 101 50 101 25 101L0 101Z" fill="#ffe399"></path><path d="M0 57L25 60.5C50 64 100 71 150 72.8C200 74.7 250 71.3 300 67.2C350 63 400 58 450 54.7C500 51.3 550 49.7 575 48.8L600 48L600 101L575 101C550 101 500 101 450 101C400 101 350 101 300 101C250 101 200 101 150 101C100 101 50 101 25 101L0 101Z" fill="#ffefcb"></path><path d="M0 93L25 88.5C50 84 100 75 150 74.8C200 74.7 250 83.3 300 83.2C350 83 400 74 450 74.2C500 74.3 550 83.7 575 88.3L600 93L600 101L575 101C550 101 500 101 450 101C400 101 350 101 300 101C250 101 200 101 150 101C100 101 50 101 25 101L0 101Z" fill="#fcfcfc"></path></svg>