<svg id="visual" viewBox="0 0 960 150" width="960" height="150" xmlns="http://www.w3.org/2000/svg" xmlns:xlink="http://www.w3.org/1999/xlink" version="1.1"><rect x="0" y="0" width="960" height="150" fill="#FCFCFC"></rect><path d="M0 28L22.8 27.8C45.7 27.7 91.3 27.3 137 38.2C182.7 49 228.3 71 274 72.8C319.7 74.7 365.3 56.3 411.2 53.7C457 51 503 64 548.8 69.8C594.7 75.7 640.3 74.3 686 64.5C731.7 54.7 777.3 36.3 823 35.5C868.7 34.7 914.3 51.3 937.2 59.7L960 68L960 151L937.2 151C914.3 151 868.7 151 823 151C777.3 151 731.7 151 686 151C640.3 151 594.7 151 548.8 151C503 151 457 151 411.2 151C365.3 151 319.7 151 274 151C228.3 151 182.7 151 137 151C91.3 151 45.7 151 22.8 151L0 151Z" fill="#f4913f"></path><path d="M0 94L22.8 90.5C45.7 87 91.3 80 137 78.5C182.7 77 228.3 81 274 85.2C319.7 89.3 365.3 93.7 411.2 97.3C457 101 503 104 548.8 99.3C594.7 94.7 640.3 82.3 686 82.2C731.7 82 777.3 94 823 93.8C868.7 93.7 914.3 81.3 937.2 75.2L960 69L960 151L937.2 151C914.3 151 868.7 151 823 151C777.3 151 731.7 151 686 151C640.3 151 594.7 151 548.8 151C503 151 457 151 411.2 151C365.3 151 319.7 151 274 151C228.3 151 182.7 151 137 151C91.3 151 45.7 151 22.8 151L0 151Z" fill="#fdb47e"></path><path d="M0 74L22.8 75C45.7 76 91.3 78 137 82.5C182.7 87 228.3 94 274 95.2C319.7 96.3 365.3 91.7 411.2 95C457 98.3 503 109.7 548.8 111.8C594.7 114 640.3 107 686 102.5C731.7 98 777.3 96 823 96.5C868.7 97 914.3 100 937.2 101.5L960 103L960 151L937.2 151C914.3 151 868.7 151 823 151C777.3 151 731.7 151 686 151C640.3 151 594.7 151 548.8 151C503 151 457 151 411.2 151C365.3 151 319.7 151 274 151C228.3 151 182.7 151 137 151C91.3 151 45.7 151 22.8 151L0 151Z" fill="#ffd8bc"></path><path d="M0 124L22.8 125.5C45.7 127 91.3 130 137 126.3C182.7 122.7 228.3 112.3 274 109C319.7 105.7 365.3 109.3 411.2 112.3C457 115.3 503 117.7 548.8 121.5C594.7 125.3 640.3 130.7 686 131.3C731.7 132 777.3 128 823 127C868.7 126 914.3 128 937.2 129L960 130L960 151L937.2 151C914.3 151 868.7 151 823 151C777.3 151 731.7 151 686 151C640.3 151 594.7 151 548.8 151C503 151 457 151 411.2 151C365.3 151 319.7 151 274 151C228.3 151 182.7 151 137 151C91.3 151 45.7 151 22.8 151L0 151Z" fill="#fcfcfc"></path></svg>