<svg id="visual" viewBox="0 0 600 100" width="600" height="100" xmlns="http://www.w3.org/2000/svg" xmlns:xlink="http://www.w3.org/1999/xlink" version="1.1"><rect x="0" y="0" width="600" height="100" fill="#FCFCFC"></rect><path d="M0 62L20 53C40 44 80 26 120 18.8C160 11.7 200 15.3 240 21.7C280 28 320 37 360 37.7C400 38.3 440 30.7 480 30.3C520 30 560 37 580 40.5L600 44L600 101L580 101C560 101 520 101 480 101C440 101 400 101 360 101C320 101 280 101 240 101C200 101 160 101 120 101C80 101 40 101 20 101L0 101Z" fill="#353535"></path><path d="M0 62L20 63.3C40 64.7 80 67.3 120 64.5C160 61.7 200 53.3 240 53C280 52.7 320 60.3 360 60.8C400 61.3 440 54.7 480 51.2C520 47.7 560 47.3 580 47.2L600 47L600 101L580 101C560 101 520 101 480 101C440 101 400 101 360 101C320 101 280 101 240 101C200 101 160 101 120 101C80 101 40 101 20 101L0 101Z" fill="#252525"></path><path d="M0 93L20 89.5C40 86 80 79 120 72.7C160 66.3 200 60.7 240 62.3C280 64 320 73 360 79.2C400 85.3 440 88.7 480 87C520 85.3 560 78.7 580 75.3L600 72L600 101L580 101C560 101 520 101 480 101C440 101 400 101 360 101C320 101 280 101 240 101C200 101 160 101 120 101C80 101 40 101 20 101L0 101Z" fill="#151515"></path></svg>