<svg id="visual" viewBox="0 0 960 150" width="960" height="150" xmlns="http://www.w3.org/2000/svg" xmlns:xlink="http://www.w3.org/1999/xlink" version="1.1"><rect x="0" y="0" width="960" height="150" fill="#FCFCFC"></rect><path d="M0 28L26.7 27.2C53.3 26.3 106.7 24.7 160 26.7C213.3 28.7 266.7 34.3 320 39.5C373.3 44.7 426.7 49.3 480 45.5C533.3 41.7 586.7 29.3 640 29.8C693.3 30.3 746.7 43.7 800 44.2C853.3 44.7 906.7 32.3 933.3 26.2L960 20L960 151L933.3 151C906.7 151 853.3 151 800 151C746.7 151 693.3 151 640 151C586.7 151 533.3 151 480 151C426.7 151 373.3 151 320 151C266.7 151 213.3 151 160 151C106.7 151 53.3 151 26.7 151L0 151Z" fill="#009fb7"></path><path d="M0 52L26.7 58.5C53.3 65 106.7 78 160 83.2C213.3 88.3 266.7 85.7 320 82C373.3 78.3 426.7 73.7 480 69.3C533.3 65 586.7 61 640 65C693.3 69 746.7 81 800 81C853.3 81 906.7 69 933.3 63L960 57L960 151L933.3 151C906.7 151 853.3 151 800 151C746.7 151 693.3 151 640 151C586.7 151 533.3 151 480 151C426.7 151 373.3 151 320 151C266.7 151 213.3 151 160 151C106.7 151 53.3 151 26.7 151L0 151Z" fill="#67b6c8"></path><path d="M0 83L26.7 83C53.3 83 106.7 83 160 78.7C213.3 74.3 266.7 65.7 320 70.2C373.3 74.7 426.7 92.3 480 101.2C533.3 110 586.7 110 640 103.3C693.3 96.7 746.7 83.3 800 75.2C853.3 67 906.7 64 933.3 62.5L960 61L960 151L933.3 151C906.7 151 853.3 151 800 151C746.7 151 693.3 151 640 151C586.7 151 533.3 151 480 151C426.7 151 373.3 151 320 151C266.7 151 213.3 151 160 151C106.7 151 53.3 151 26.7 151L0 151Z" fill="#9dcdd9"></path><path d="M0 100L26.7 103.7C53.3 107.3 106.7 114.7 160 118.3C213.3 122 266.7 122 320 119.8C373.3 117.7 426.7 113.3 480 109.7C533.3 106 586.7 103 640 101C693.3 99 746.7 98 800 97.7C853.3 97.3 906.7 97.7 933.3 97.8L960 98L960 151L933.3 151C906.7 151 853.3 151 800 151C746.7 151 693.3 151 640 151C586.7 151 533.3 151 480 151C426.7 151 373.3 151 320 151C266.7 151 213.3 151 160 151C106.7 151 53.3 151 26.7 151L0 151Z" fill="#cde4ea"></path><path d="M0 128L26.7 128.7C53.3 129.3 106.7 130.7 160 133C213.3 135.3 266.7 138.7 320 134.7C373.3 130.7 426.7 119.3 480 114.3C533.3 109.3 586.7 110.7 640 114.2C693.3 117.7 746.7 123.3 800 123.3C853.3 123.3 906.7 117.7 933.3 114.8L960 112L960 151L933.3 151C906.7 151 853.3 151 800 151C746.7 151 693.3 151 640 151C586.7 151 533.3 151 480 151C426.7 151 373.3 151 320 151C266.7 151 213.3 151 160 151C106.7 151 53.3 151 26.7 151L0 151Z" fill="#fcfcfc"></path></svg>